<?xml version="1.0" encoding="UTF-8" standalone="no"?>
<svg
   xmlns:dc="http://purl.org/dc/elements/1.1/"
   xmlns:cc="http://creativecommons.org/ns#"
   xmlns:rdf="http://www.w3.org/1999/02/22-rdf-syntax-ns#"
   xmlns:svg="http://www.w3.org/2000/svg"
   xmlns="http://www.w3.org/2000/svg"
   xmlns:sodipodi="http://sodipodi.sourceforge.net/DTD/sodipodi-0.dtd"
   xmlns:inkscape="http://www.inkscape.org/namespaces/inkscape"
   viewBox="0 0 328.86133 336.51727"
   height="336.51727"
   width="328.86133"
   version="1.1"
   id="svg5070"
   inkscape:version="0.91 r13725"
   sodipodi:docname="silhouettesMaineCoon2Droite.svg">
  <sodipodi:namedview
     pagecolor="#ffffff"
     bordercolor="#666666"
     borderopacity="1"
     objecttolerance="10"
     gridtolerance="10"
     guidetolerance="10"
     inkscape:pageopacity="0"
     inkscape:pageshadow="2"
     inkscape:window-width="640"
     inkscape:window-height="480"
     id="namedview3447"
     showgrid="false"
     inkscape:zoom="0.7013013"
     inkscape:cx="164.43066"
     inkscape:cy="168.25864"
     inkscape:window-x="65"
     inkscape:window-y="24"
     inkscape:window-maximized="0"
     inkscape:current-layer="svg5070" />
  <metadata
     id="metadata5076">
    <rdf:RDF>
      <cc:Work
         rdf:about="">
        <dc:format>image/svg+xml</dc:format>
        <dc:type
           rdf:resource="http://purl.org/dc/dcmitype/StillImage" />
        <dc:title></dc:title>
      </cc:Work>
    </rdf:RDF>
  </metadata>
  <defs
     id="defs5074" />
  <path
     id="path5080"
     d="m 209.18552,335.46793 c 3.39744,-1.73156 4.27743,-4.97764 2.79998,-10.32851 -2.12118,-7.68227 -6.0141,-10.47854 -15.95125,-11.45773 l -8.85804,-0.87285 7.77766,-4.67273 c 4.2777,-2.57001 9.56301,-6.98654 11.74512,-9.81451 2.18211,-2.82798 4.19047,-4.47279 4.46302,-3.65514 0.57811,1.73433 7.19451,-7.54522 7.19451,-10.09036 0,-0.98111 0.77131,-1.42259 1.79746,-1.02882 2.22321,0.85312 5.27433,-7.77398 6.48515,-18.33692 l 0.8356,-7.28962 2.94683,3.53962 c 6.24675,7.5034 14.22294,25.86294 18.10096,41.66464 4.3428,17.6955 4.64161,18.39624 10.70763,25.11059 4.41438,4.8862 4.42366,4.88941 14.11558,4.88941 18.38522,0 21.14435,-2.1481 16.93073,-13.18131 -2.31187,-6.05354 -5.89942,-9.31869 -10.23883,-9.31869 -3.41079,0 -3.55113,-0.44854 -6.6487,-21.25 -3.23045,-21.6938 -4.35939,-44.36966 -2.80045,-56.25 l 1.23018,-9.375 10.61966,-10.73258 c 5.84081,-5.90291 10.91386,-11.80916 11.27344,-13.125 0.35958,-1.31583 1.64254,-6.21623 2.85101,-10.88978 1.36616,-5.28338 2.568,-7.89743 3.17752,-6.9112 2.04284,3.30538 2.96061,-0.81678 2.92072,-13.11848 -0.032,-9.8795 -0.64503,-14.35447 -2.74284,-20.02309 -2.12418,-5.73986 -2.31261,-7.15085 -0.88162,-6.60172 2.27145,0.87164 2.46425,2.31281 -1.92205,-14.3677 -2.05812,-7.82675 -3.74562,-15.19525 -3.75,-16.37446 -0.004,-1.1792 1.74561,-4.14122 3.88888,-6.58226 3.88259,-4.42204 3.92563,-4.43532 11.76996,-3.63164 7.39474,0.75761 8.07711,0.60263 11.2305,-2.55076 2.06993,-2.069936 3.12556,-4.243875 2.75284,-5.669158 -0.3325,-1.271473 0.45024,-3.911611 1.73942,-5.866971 1.28917,-1.955361 2.34766,-5.065457 2.35219,-6.911326 0.005,-1.84587 0.58568,-4.87492 1.29145,-6.731225 1.59353,-4.191289 -0.90777,-8.552185 -6.6505,-11.594832 -6.57188,-3.481949 -10.38418,-8.040781 -12.72007,-15.210924 -3.51489,-10.789168 -5.23175,-12.132238 -20.66264,-16.164033 l -8.125,-2.122906 0.15225,-4.909978 c 0.0837,-2.700487 0.57256,-9.128727 1.08626,-14.2849771 L 282.40404,0 277.56779,4.8864926 c -2.65994,2.687571 -7.75923,6.7636904 -11.33175,9.0580424 -3.57251,2.294353 -8.0652,6.282931 -9.98374,8.863507 -1.91854,2.580577 -6.41941,7.628131 -10.00192,11.216787 -8.47688,8.491411 -13.8403,19.8501 -20.52841,43.475171 -4.78152,16.890273 -5.73825,19.115039 -9.64595,22.430362 -2.38588,2.024198 -6.52417,7.062858 -9.19621,11.197018 l -4.85824,7.51666 -9.35314,0.28277 c -19.88791,0.60128 -33.93518,7.2479 -50.43568,23.86419 -8.08956,8.14632 -11.26416,12.13071 -10.19281,12.79285 1.16895,0.72245 0.78123,2.18891 -1.55881,5.89576 -12.81422,20.29905 -32.316496,68.73589 -36.451116,90.53185 -2.15212,11.34496 -2.5275,28.39893 -0.76074,34.55929 l 1.16275,4.05425 -4.77148,0 c -7.38633,0 -16.01232,-6.43686 -20.54623,-15.33198 -2.84884,-5.58914 -3.7995,-9.3843 -4.23495,-16.90626 -0.95897,-16.56569 4.49023,-32.41601 20.51186,-59.66366 18.589836,-31.61534 25.465306,-49.69798 25.465306,-66.97429 0,-7.85171 -1.75048,-12.76893 -2.74169,-7.70161 -0.24552,1.25518 -1.62709,-1.06931 -3.21154,-5.40344 -5.841456,-15.9788 -15.961676,-27.771355 -29.671766,-34.574919 -17.79196,-8.829175 -40.33114,-7.316771 -50.9375,3.417964 -4.44354,4.497314 -4.33369,5.638195 0.54285,5.638195 10.3406,0 23.28208,11.37314 26.83039,23.57892 2.70774,9.3143 1.66356,21.82579 -2.82813,33.88697 -2.26152,6.07267 -8.33407,16.56913 -17.35597,30 -21.18514,31.53817 -26.4372104,42.072 -30.1756004,60.52171 -3.01908,14.89971 -0.63728998,33.81181 5.36541,42.60304 2.59949,3.80706 2.00188,4.90546 -1.44145,2.64931 -3.07922,-2.01759 -3.125,-1.99583 -3.125,1.4858 0,5.43465 5.67475,15.59185 12.5549504,22.47205 12.6332,12.63321 29.61693,18.57582 56.81699,19.88032 10.53327,0.50517 19.321,0.25309 24.8711,-0.71341 7.950516,-1.38452 8.777706,-1.31452 11.232266,0.95054 5.29137,4.88285 11.00247,5.49292 55.77468,5.95792 29.79021,0.30939 43.96111,0.0218 45.829,-0.93024 z"
     style="fill:#000000"
     inkscape:connector-curvature="0" />
</svg>
