<?xml version="1.0" encoding="UTF-8" standalone="no"?>
<svg
   xmlns:dc="http://purl.org/dc/elements/1.1/"
   xmlns:cc="http://creativecommons.org/ns#"
   xmlns:rdf="http://www.w3.org/1999/02/22-rdf-syntax-ns#"
   xmlns:svg="http://www.w3.org/2000/svg"
   xmlns="http://www.w3.org/2000/svg"
   xmlns:sodipodi="http://sodipodi.sourceforge.net/DTD/sodipodi-0.dtd"
   xmlns:inkscape="http://www.inkscape.org/namespaces/inkscape"
   viewBox="0 0 328.86133 336.51727"
   height="336.51727"
   width="328.86133"
   version="1.1"
   id="svg5070"
   inkscape:version="0.91 r13725"
   sodipodi:docname="silhouettesMaineCoon2.svg">
  <sodipodi:namedview
     pagecolor="#ffffff"
     bordercolor="#666666"
     borderopacity="1"
     objecttolerance="10"
     gridtolerance="10"
     guidetolerance="10"
     inkscape:pageopacity="0"
     inkscape:pageshadow="2"
     inkscape:window-width="640"
     inkscape:window-height="480"
     id="namedview3447"
     showgrid="false"
     inkscape:zoom="0.7013013"
     inkscape:cx="164.43066"
     inkscape:cy="168.25864"
     inkscape:window-x="65"
     inkscape:window-y="24"
     inkscape:window-maximized="0"
     inkscape:current-layer="svg5070" />
  <metadata
     id="metadata5076">
    <rdf:RDF>
      <cc:Work
         rdf:about="">
        <dc:format>image/svg+xml</dc:format>
        <dc:type
           rdf:resource="http://purl.org/dc/dcmitype/StillImage" />
        <dc:title />
      </cc:Work>
    </rdf:RDF>
  </metadata>
  <defs
     id="defs5074" />
  <path
     id="path5080"
     d="m 119.6758,335.46793 c -3.39744,-1.73156 -4.27743,-4.97764 -2.79998,-10.32851 2.12118,-7.68227 6.0141,-10.47854 15.95125,-11.45773 l 8.85804,-0.87285 -7.77766,-4.67273 c -4.2777,-2.57001 -9.56301,-6.98654 -11.74512,-9.81451 -2.18211,-2.82798 -4.19047,-4.47279 -4.46302,-3.65514 -0.57811,1.73433 -7.19451,-7.54522 -7.19451,-10.09036 0,-0.98111 -0.77131,-1.42259 -1.79746,-1.02882 -2.22321,0.85312 -5.27433,-7.77398 -6.48515,-18.33692 l -0.8356,-7.28962 -2.94683,3.53962 c -6.246742,7.5034 -14.222936,25.86294 -18.100961,41.66464 -4.342797,17.6955 -4.641603,18.39624 -10.707625,25.11059 -4.414381,4.8862 -4.423664,4.88941 -14.115583,4.88941 -18.385221,0 -21.144351,-2.1481 -16.93073,-13.18131 2.311868,-6.05354 5.899425,-9.31869 10.238832,-9.31869 3.410793,0 3.551133,-0.44854 6.648703,-21.25 3.230451,-21.6938 4.359385,-44.36966 2.80045,-56.25 L 57.04266,223.75 46.423004,213.01742 c -5.840811,-5.90291 -10.91386,-11.80916 -11.273443,-13.125 -0.359582,-1.31583 -1.642535,-6.21623 -2.851007,-10.88978 -1.366158,-5.28338 -2.568005,-7.89743 -3.177524,-6.9112 -2.042841,3.30538 -2.960605,-0.81678 -2.92072,-13.11848 0.03204,-9.8795 0.645031,-14.35447 2.742843,-20.02309 2.124181,-5.73986 2.312608,-7.15085 0.881616,-6.60172 -2.271449,0.87164 -2.464243,2.31281 1.922056,-14.3677 2.058116,-7.82675 3.745617,-15.19525 3.75,-16.37446 0.0044,-1.1792 -1.745612,-4.14122 -3.888877,-6.58226 -3.882598,-4.42204 -3.925632,-4.43532 -11.769962,-3.63164 -7.394738,0.75761 -8.077111,0.60263 -11.2304987,-2.55076 -2.069936,-2.069936 -3.125563,-4.243875 -2.752843,-5.669158 0.332498,-1.271473 -0.45024,-3.911611 -1.739418,-5.866971 -1.289177,-1.955361 -2.347666,-5.065457 -2.352196,-6.911326 -0.0045,-1.84587 -0.585681,-4.87492 -1.29144697,-6.731225 C -1.1219417,69.471361 1.3793583,65.110465 7.1220883,62.067818 13.693963,58.585869 17.506263,54.027037 19.84215,46.856894 23.357043,36.067726 25.073901,34.724656 40.504794,30.692861 l 8.125,-2.122906 -0.152254,-4.909978 C 48.3938,20.95949 47.904984,14.53125 47.391283,9.3749999 L 46.45728,0 51.293536,4.8864926 c 2.659942,2.687571 7.759227,6.7636904 11.331744,9.0580424 3.572518,2.294353 8.065201,6.282931 9.983744,8.863507 1.918541,2.580577 6.419406,7.628131 10.00192,11.216787 8.47688,8.491411 13.840301,19.8501 20.528406,43.475171 4.78152,16.890273 5.73825,19.115039 9.64595,22.430362 2.38588,2.024198 6.52417,7.062858 9.19621,11.197018 l 4.85824,7.51666 9.35314,0.28277 c 19.88791,0.60128 33.93518,7.2479 50.43568,23.86419 8.08956,8.14632 11.26416,12.13071 10.19281,12.79285 -1.16895,0.72245 -0.78123,2.18891 1.55881,5.89576 12.81422,20.29905 32.3165,68.73589 36.45112,90.53185 2.15212,11.34496 2.5275,28.39893 0.76074,34.55929 l -1.16275,4.05425 4.77148,0 c 7.38633,0 16.01232,-6.43686 20.54623,-15.33198 2.84884,-5.58914 3.7995,-9.3843 4.23495,-16.90626 0.95897,-16.56569 -4.49023,-32.41601 -20.51186,-59.66366 -18.58984,-31.61534 -25.46531,-49.69798 -25.46531,-66.97429 0,-7.85171 1.75048,-12.76893 2.74169,-7.70161 0.24552,1.25518 1.62709,-1.06931 3.21154,-5.40344 5.84146,-15.9788 15.96168,-27.771355 29.67177,-34.574919 17.79196,-8.829175 40.33114,-7.316771 50.9375,3.417964 4.44354,4.497314 4.33369,5.638195 -0.54285,5.638195 -10.3406,0 -23.28208,11.37314 -26.83039,23.57892 -2.70774,9.3143 -1.66356,21.82579 2.82813,33.88697 2.26152,6.07267 8.33407,16.56913 17.35597,30 21.18514,31.53817 26.43721,42.072 30.1756,60.52171 3.01908,14.89971 0.63729,33.81181 -5.36541,42.60304 -2.59949,3.80706 -2.00188,4.90546 1.44145,2.64931 3.07922,-2.01759 3.125,-1.99583 3.125,1.4858 0,5.43465 -5.67475,15.59185 -12.55495,22.47205 -12.6332,12.63321 -29.61693,18.57582 -56.81699,19.88032 -10.53327,0.50517 -19.321,0.25309 -24.8711,-0.71341 -7.95052,-1.38452 -8.77771,-1.31452 -11.23227,0.95054 -5.29137,4.88285 -11.00247,5.49292 -55.77468,5.95792 -29.79021,0.30939 -43.96111,0.0218 -45.829,-0.93024 z"
     style="fill:#000000" />
</svg>
