<?xml version="1.0" encoding="UTF-8" standalone="no"?>
<svg
   xmlns:dc="http://purl.org/dc/elements/1.1/"
   xmlns:cc="http://creativecommons.org/ns#"
   xmlns:rdf="http://www.w3.org/1999/02/22-rdf-syntax-ns#"
   xmlns:svg="http://www.w3.org/2000/svg"
   xmlns="http://www.w3.org/2000/svg"
   viewBox="0 0 359.37479 199.12213"
   height="199.12213"
   width="359.37479"
   version="1.1"
   id="svg5234">
  <metadata
     id="metadata5240">
    <rdf:RDF>
      <cc:Work
         rdf:about="">
        <dc:format>image/svg+xml</dc:format>
        <dc:type
           rdf:resource="http://purl.org/dc/dcmitype/StillImage" />
        <dc:title></dc:title>
      </cc:Work>
    </rdf:RDF>
  </metadata>
  <defs
     id="defs5238" />
  <path
     id="path5244"
     d="M 43.727736,197.44419 C 33.248598,194.49543 24.958119,189.4396 16.008575,180.54008 3.5863725,168.1873 -1.5644005,155.6068 0.40991357,142.44114 c 0.76594793,-5.10771 1.09355993,-5.57563 2.88459693,-4.12005 1.765781,1.43506 1.895798,1.3269 1.031288,-0.85791 C 0.27018257,127.21369 0.89857657,121.56283 8.7468385,97.70673 17.359491,71.527148 33.982964,40.186677 36.082168,46.171048 c 0.640949,1.827204 1.322866,1.45195 4.188245,-2.304755 C 49.032951,32.378014 52.221927,18.297003 47.926593,10.06022 45.251027,4.9295183 47.033409,4.1276913 59.948001,4.6522409 73.885426,5.2183346 82.774306,9.2577668 88.96331,17.837861 c 2.330895,3.231424 4.638521,6.984553 5.128058,8.340286 0.684065,1.894465 1.127918,2.080117 1.917747,0.802147 2.022078,-3.271794 5.564085,9.568816 5.640785,20.449194 0.0673,9.55105 -0.27029,10.912349 -5.147392,20.755081 -2.870691,5.79349 -10.644788,17.844992 -17.275772,26.781114 -19.48361,26.256727 -24.244311,37.820437 -20.070168,48.750267 2.563555,6.71258 7.761339,10.74007 14.899179,11.5446 l 5.230455,0.58955 0.108213,-13.59386 c 0.119462,-15.00776 2.425585,-25.32189 6.946815,-31.0697 1.613066,-2.05069 2.223243,-3.73419 1.447197,-3.99287 -1.91762,-0.6392 12.14903,-21.51706 18.150313,-26.938851 2.7711,-2.503521 7.31533,-6.058681 10.09828,-7.900356 5.0946,-3.371444 6.38643,-5.44151 3.49743,-5.604363 -2.82582,-0.15929 7.16741,-3.332911 19.38401,-6.155912 9.70807,-2.24333 11.85545,-3.14335 11.25199,-4.71596 -0.65643,-1.71062 0.74,-1.844273 11.65285,-1.115294 20.83608,1.391849 39.12076,6.735469 65.38245,19.107743 l 14.23379,6.705753 10.76621,-0.785055 c 13.81233,-1.007175 17.24269,-3.832091 19.4535,-16.020056 0.49303,-2.718022 2.08966,-7.218022 3.54808,-10 1.45841,-2.781977 2.67707,-5.386139 2.70813,-5.787024 0.0311,-0.400886 3.22076,-4.619636 7.08821,-9.375 3.86746,-4.755365 7.44722,-10.052367 7.95503,-11.771117 1.85137,-6.266172 6.05005,-11.436499 13.2674,-16.3377 4.05734,-2.75529 8.31294,-6.4380681 9.45689,-8.1839523 1.83541,-2.80118699 2.21668,-2.92990699 3.24355,-1.0950095 0.73546,1.3142039 0.65893,4.083708 -0.20797,7.5265184 -0.7544,2.9959564 -1.37162,7.3672804 -1.37162,9.7140534 0,4.224617 0.0827,4.287273 8.35561,6.328811 11.35454,2.802013 13.28289,4.353241 16.54986,13.31321 2.16237,5.930508 3.72494,8.209075 6.71632,9.793829 6.31338,3.344674 11.24292,8.690069 10.28707,11.1549 -0.46076,1.188188 -1.08167,4.038168 -1.3798,6.33329 -0.29811,2.295123 -1.32069,5.284636 -2.27237,6.643365 -0.95169,1.358729 -1.46572,3.482365 -1.14228,4.719191 0.76329,2.918822 -5.0874,7.589494 -9.50693,7.589494 -4.51273,0 -12.29939,7.711595 -13.32914,13.200656 -0.43714,2.330118 -0.19608,5.954036 0.53568,8.053176 0.73177,2.09914 1.0618,4.51678 0.73342,5.37254 -0.32839,0.85576 1.06432,4.17567 3.09491,7.37758 4.49669,7.09053 6.20115,12.86229 5.40344,18.29744 -0.41472,2.8256 -1.13649,3.89347 -2.32368,3.43791 -1.29276,-0.49609 -1.72896,0.65385 -1.74956,4.61243 -0.0505,9.70047 -5.1607,17.37157 -16.63281,24.96811 l -4.78527,3.16867 6.34777,0.87304 c 3.49127,0.48018 9.13761,0.48934 12.54742,0.0204 9.12231,-1.25464 13.35106,0.0895 16.9517,5.38835 3.2943,4.84801 4.174,12.46686 1.53614,13.30413 -0.85938,0.27277 -13.09375,0.82082 -27.1875,1.21788 -14.09375,0.39706 -34.7902,1.34147 -45.99213,2.09869 -25.9336,1.75303 -37.35432,1.23 -42.17972,-1.93173 -3.18578,-2.0874 -6.15489,-2.40355 -23.36388,-2.48777 -19.32195,-0.0945 -19.71431,-0.0434 -19.71428,2.57023 0,1.655 -0.9926,2.92629 -2.61637,3.3509 -4.43131,1.15883 -86.58124,0.75724 -89.57112,-0.43786 -1.54688,-0.6183 -2.812503,-1.95286 -2.812503,-2.9657 0,-3.26999 -1.84202,-3.16802 -13.143849,0.72755 -13.691527,4.71928 -32.079132,5.95555 -42.975362,2.88941 z"
     style="fill:#000000" />
</svg>
