<?xml version="1.0" encoding="UTF-8" standalone="no"?>
<svg
   xmlns:dc="http://purl.org/dc/elements/1.1/"
   xmlns:cc="http://creativecommons.org/ns#"
   xmlns:rdf="http://www.w3.org/1999/02/22-rdf-syntax-ns#"
   xmlns:svg="http://www.w3.org/2000/svg"
   xmlns="http://www.w3.org/2000/svg"
   id="svg5335"
   version="1.1"
   width="523.33868"
   height="364.19537"
   viewBox="0 0 523.33868 364.19537">
  <metadata
     id="metadata5341">
    <rdf:RDF>
      <cc:Work
         rdf:about="">
        <dc:format>image/svg+xml</dc:format>
        <dc:type
           rdf:resource="http://purl.org/dc/dcmitype/StillImage" />
        <dc:title></dc:title>
      </cc:Work>
    </rdf:RDF>
  </metadata>
  <defs
     id="defs5339" />
  <path
     style="fill:#000000"
     d="m 165.56593,360.21541 -3.83046,-3.83047 1.05723,-9.60703 c 1.61507,-14.67634 1.11364,-22.16979 -2.4413,-36.48204 -3.77157,-15.18442 -3.97443,-18.7478 -1.35559,-23.81208 2.22805,-4.30857 2.4359,-4.22727 -4.52685,-1.77067 -11.17354,3.94225 -14.86185,10.38231 -18.57356,32.43082 -1.87605,11.14424 -3.33697,16.06852 -6.07447,20.47504 -1.98238,3.19104 -5.11326,8.46342 -6.9575,11.7164 -3.7201,6.56174 -6.3514,8.46049 -11.72465,8.46049 -5.7925,0 -9.4182,-4.90416 -10.04639,-13.58886 -0.57174,-7.90424 1.60455,-14.05812 8.01403,-22.66114 l 3.25949,-4.375 -1.0502,-18.125 c -1.48516,-25.63183 -1.21193,-33.06718 1.35932,-36.99139 1.33267,-2.03392 5.95165,-5.00435 12.03803,-7.74156 10.93479,-4.91768 11.11317,-5.25914 8.55172,-16.36953 -1.44064,-6.24891 -0.90346,-7.49988 2.15275,-5.01314 1.91374,1.55712 2.03475,1.47707 1.14801,-0.75938 -0.54521,-1.375 -1.85147,-5.03125 -2.90283,-8.125 -1.05136,-3.09375 -2.98505,-6.81226 -4.29709,-8.26336 -2.36861,-2.61968 -2.35885,-2.6494 1.37735,-4.19698 5.02381,-2.08093 7.54854,-5.03671 4.31129,-5.04736 -1.69318,-0.005 -1.30411,-0.54811 1.40666,-1.96155 2.06096,-1.07463 4.80124,-2.89928 6.08949,-4.0548 2.67172,-2.39646 12.48194,-16.49236 11.8378,-17.00926 -0.23348,-0.18735 -6.60458,-1.86918 -14.15801,-3.73738 -8.84708,-2.18816 -19.61078,-6.14666 -30.25182,-11.12552 l -16.518298,-7.72879 5.25182,-2.32084 c 4.644888,-2.05263 4.962898,-2.44387 2.751808,-3.38545 -1.375,-0.58554 -10.937498,-4.40414 -21.249996,-8.48579 -29.730995,-11.76741 -34.041248,-14.15473 -44.419553,-24.60277 -8.665288,-8.72351 -9.046408,-9.33015 -5.861662,-9.33015 1.873417,0 3.406215,-0.49914 3.406215,-1.1092 0,-0.61006 -3.914213,-4.27174 -8.69825,-8.13707 C 15.26303,95.972984 10.08889,89.323242 4.81395,78.068818 1.46713,70.928146 1.46404,70.89349 1.78638,44.045865 1.96385,29.264615 1.63451,13.30742 1.05452,8.5854322 L 0,0 6.35686,0.7711972 c 12.032453,1.4597459 30.793873,7.02794 41.065011,12.1876678 24.284152,12.199195 32.271658,19.365789 47.883161,42.962 6.367998,9.625 13.311918,19.152114 15.430928,21.171364 l 3.85275,3.671364 0,-2.978589 c 0,-2.482455 0.62799,-1.988353 3.77019,2.966381 5.54008,8.735809 19.77465,27.496595 29.45601,38.822265 6.87362,8.04105 8.61426,9.47741 9.25872,7.6402 0.65618,-1.8706 1.95239,-0.93037 7.48204,5.42721 3.6786,4.22937 9.49188,9.41478 12.91838,11.52313 l 6.23001,3.83338 8.35452,-3.85085 c 4.59499,-2.11798 9.01278,-3.85085 9.81733,-3.85085 0.80454,0 1.4628,-0.5625 1.4628,-1.25 0,-0.6875 1.19234,-1.25 2.64965,-1.25 1.4573,0 10.87917,-1.93151 20.9375,-4.29224 27.86781,-6.54071 44.90436,-8.5815 71.41285,-8.55448 21.65175,0.0221 42.75751,2.00304 56.875,5.33824 4.08127,0.96419 5.27814,0.81217 6.51374,-0.82737 1.32538,-1.75868 2.45895,-1.82264 9.11026,-0.51408 4.17809,0.82199 9.79052,2.26862 12.4721,3.21473 3.6724,1.2957 4.99722,1.35524 5.36854,0.24129 0.34002,-1.02009 2.56156,-0.51005 7.16036,1.64391 4.27213,2.00096 6.83314,2.62557 7.12877,1.73869 0.25377,-0.76129 1.18303,-2.37107 2.06503,-3.57728 1.5161,-2.07339 1.90598,-2.04125 7.14241,0.58881 3.04634,1.53006 6.80441,3.94148 8.35129,5.35874 2.50075,2.2912 2.8125,2.33779 2.8125,0.42031 0,-1.85309 0.57155,-1.72354 4.0625,0.92091 5.29342,4.00983 15.2331,6.65366 28.4375,7.564 5.84375,0.40288 12.65118,1.29922 15.12763,1.99187 4.03916,1.12974 6.03342,0.62911 19.375,-4.86382 8.17979,-3.36775 15.29425,-5.86928 15.80987,-5.55894 0.51562,0.31034 0.9375,3.5739 0.9375,7.25234 l 0,6.6881 6.5625,-1.74703 c 9.46649,-2.52011 9.6875,-2.44515 9.6875,3.28538 0,6.11091 -2.19969,10.65263 -9.98708,20.62043 -3.24737,4.15664 -6.2642,9.50039 -6.70403,11.875 -2.42459,13.09004 -2.41398,13.32568 0.91782,20.36853 1.80031,3.80554 3.27329,7.72731 3.27329,8.71506 0,2.44036 -16.04204,18.14599 -20.31166,19.88573 -3.30431,1.3464 -8.44639,-1.06973 -14.17083,-6.6585 -3.57402,-3.48932 -7.13937,-5.52722 -11.875,-6.78755 -8.69289,-2.31353 -22.41356,-2.38002 -25.49942,-0.12363 -2.1929,1.60349 -2.00968,1.94266 3.01625,5.58343 2.97137,2.15245 11.54677,5.8982 19.28332,8.42298 18.08583,5.90223 19.32699,6.5995 30.73063,17.26405 5.3043,4.96053 12.24219,10.66277 15.41754,12.67164 3.17535,2.00888 6.28549,4.79396 6.91146,6.1891 3.11219,6.9364 -6.70288,15.4964 -15.80955,13.78798 -6.69525,-1.25604 -11.22158,-3.9748 -20.02013,-12.02523 -8.61501,-7.88249 -16.74537,-11.68951 -27.87947,-13.0545 l -6.66814,-0.81747 5.64217,3.67058 c 8.134,5.29169 15.52014,14.25958 18.6604,22.65658 1.50078,4.01304 4.66228,10.01607 7.02557,13.34007 7.47765,10.51749 4.74867,16.57662 -8.01848,17.80338 -7.85994,0.75524 -11.95974,-2.68921 -18.76096,-15.76203 -2.81389,-5.40863 -5.86466,-10.4551 -6.77951,-11.21436 -0.91485,-0.75925 -10.06842,-4.27032 -20.34128,-7.80237 -24.43852,-8.40257 -52.33977,-19.37323 -58.90747,-23.16222 -2.87627,-1.65933 -5.56403,-4.0708 -5.97283,-5.35878 -1.05673,-3.32944 -6.73185,-4.03343 -40.67261,-5.04536 l -29.375,-0.87578 -11.25,-4.76087 c -13.62191,-5.76462 -22.10059,-8.21797 -28.40103,-8.21797 l -4.73121,0 -5.78001,11.87922 c -7.20479,14.80748 -12.89414,21.32917 -26.71275,30.62078 -12.55758,8.4437 -20.18034,16.50057 -22.29764,23.56749 -0.89812,2.9977 -1.45327,12.81034 -1.40086,24.76147 0.0899,20.49974 -1.43735,31.96227 -4.76108,35.73354 -3.26803,3.7081 -11.03172,2.8885 -15.5632,-1.64296 z"
     id="path5345" />
</svg>
