<?xml version="1.0" encoding="UTF-8" standalone="no"?>
<svg
   xmlns:dc="http://purl.org/dc/elements/1.1/"
   xmlns:cc="http://creativecommons.org/ns#"
   xmlns:rdf="http://www.w3.org/1999/02/22-rdf-syntax-ns#"
   xmlns:svg="http://www.w3.org/2000/svg"
   xmlns="http://www.w3.org/2000/svg"
   xmlns:sodipodi="http://sodipodi.sourceforge.net/DTD/sodipodi-0.dtd"
   xmlns:inkscape="http://www.inkscape.org/namespaces/inkscape"
   viewBox="0 0 359.37479 199.12213"
   height="199.12213"
   width="359.37479"
   version="1.1"
   id="svg5234"
   inkscape:version="0.91 r13725"
   sodipodi:docname="silhouettesMaineCoon4Droite.svg">
  <sodipodi:namedview
     pagecolor="#ffffff"
     bordercolor="#666666"
     borderopacity="1"
     objecttolerance="10"
     gridtolerance="10"
     guidetolerance="10"
     inkscape:pageopacity="0"
     inkscape:pageshadow="2"
     inkscape:window-width="640"
     inkscape:window-height="480"
     id="namedview3584"
     showgrid="false"
     inkscape:zoom="0.87373965"
     inkscape:cx="179.68739"
     inkscape:cy="99.561066"
     inkscape:window-x="65"
     inkscape:window-y="24"
     inkscape:window-maximized="0"
     inkscape:current-layer="svg5234" />
  <metadata
     id="metadata5240">
    <rdf:RDF>
      <cc:Work
         rdf:about="">
        <dc:format>image/svg+xml</dc:format>
        <dc:type
           rdf:resource="http://purl.org/dc/dcmitype/StillImage" />
        <dc:title></dc:title>
      </cc:Work>
    </rdf:RDF>
  </metadata>
  <defs
     id="defs5238" />
  <path
     id="path5244"
     d="m 315.64703,197.44419 c 10.47914,-2.94876 18.76962,-8.00459 27.71917,-16.90411 12.4222,-12.35278 17.57297,-24.93328 15.59866,-38.09894 -0.76595,-5.10771 -1.09356,-5.57563 -2.8846,-4.12005 -1.76578,1.43506 -1.8958,1.3269 -1.03129,-0.85791 4.05562,-10.24949 3.42722,-15.90035 -4.42104,-39.75645 -8.61265,-26.179582 -25.23612,-57.520053 -27.33533,-51.535682 -0.64095,1.827204 -1.32286,1.45195 -4.18824,-2.304755 -8.76254,-11.488279 -11.95152,-25.56929 -7.65618,-33.806073 2.67556,-5.1307017 0.89318,-5.9325287 -12.02141,-5.4079791 -13.93743,0.5660937 -22.82631,4.6055259 -29.01531,13.1856201 -2.33089,3.231424 -4.63852,6.984553 -5.12806,8.340286 -0.68406,1.894465 -1.12792,2.080117 -1.91774,0.802147 -2.02208,-3.271794 -5.56409,9.568816 -5.64079,20.449194 -0.0673,9.55105 0.27029,10.912349 5.14739,20.755081 2.87069,5.79349 10.64479,17.844992 17.27577,26.781114 19.48361,26.256727 24.24432,37.820437 20.07017,48.750267 -2.56355,6.71258 -7.76134,10.74007 -14.89918,11.5446 l -5.23045,0.58955 -0.10821,-13.59386 c -0.11947,-15.00776 -2.42559,-25.32189 -6.94682,-31.0697 -1.61307,-2.05069 -2.22324,-3.73419 -1.4472,-3.99287 1.91762,-0.6392 -12.14903,-21.51706 -18.15031,-26.938851 -2.7711,-2.503521 -7.31533,-6.058681 -10.09828,-7.900356 -5.0946,-3.371444 -6.38643,-5.44151 -3.49743,-5.604363 2.82582,-0.15929 -7.16741,-3.332911 -19.38401,-6.155912 -9.70807,-2.24333 -11.85545,-3.14335 -11.25199,-4.71596 0.65643,-1.71062 -0.74,-1.844273 -11.65285,-1.115294 -20.83608,1.391849 -39.12076,6.735469 -65.38245,19.107743 L 117.93523,80.57643 107.16902,79.791375 C 93.356691,78.7842 89.926331,75.959284 87.715521,63.771319 c -0.49303,-2.718022 -2.08966,-7.218022 -3.54808,-10 -1.45841,-2.781977 -2.67707,-5.386139 -2.70813,-5.787024 -0.0311,-0.400886 -3.22076,-4.619636 -7.08821,-9.375 -3.86746,-4.755365 -7.44722,-10.052367 -7.95503,-11.771117 -1.85137,-6.266172 -6.05005,-11.436499 -13.2674,-16.3377 -4.05734,-2.75529 -8.31294,-6.4380681 -9.45689,-8.1839523 -1.83541,-2.80118699 -2.21668,-2.92990699 -3.24355,-1.0950095 -0.73546,1.3142039 -0.65893,4.083708 0.20797,7.5265184 0.7544,2.9959564 1.37162,7.3672804 1.37162,9.7140534 0,4.224617 -0.0827,4.287273 -8.35561,6.328811 -11.35454,2.802013 -13.28289,4.353241 -16.54986,13.31321 -2.16237,5.930508 -3.72494,8.209075 -6.71632,9.793829 -6.3133805,3.344674 -11.24292048,8.690069 -10.28707048,11.1549 0.46076,1.188188 1.08166998,4.038168 1.37979998,6.33329 0.29811,2.295123 1.32069,5.284636 2.27237,6.643365 0.95169,1.358729 1.46572,3.482365 1.14228,4.719191 -0.76329,2.918822 5.0874005,7.589494 9.5069305,7.589494 4.51273,0 12.29939,7.711595 13.32914,13.200656 0.43714,2.330118 0.19608,5.954036 -0.53568,8.053176 -0.73177,2.09914 -1.0618,4.51678 -0.73342,5.37254 0.32839,0.85576 -1.06432,4.17567 -3.09491,7.37758 -4.49669,7.09053 -6.20115,12.86229 -5.40344,18.29744 0.41472,2.8256 1.13649,3.89347 2.32368,3.43791 1.29276,-0.49609 1.72896,0.65385 1.74956,4.61243 0.0505,9.70047 5.1607,17.37157 16.63281,24.96811 l 4.78527,3.16867 -6.34777,0.87304 c -3.49127,0.48018 -9.13761,0.48934 -12.54742,0.0204 -9.12231,-1.25464 -13.35106,0.0895 -16.9517005,5.38835 -3.2943,4.84801 -4.174,12.46686 -1.53614,13.30413 0.85938,0.27277 13.0937505,0.82082 27.1875005,1.21788 14.09375,0.39706 34.7902,1.34147 45.99213,2.09869 25.933599,1.75303 37.354319,1.23 42.179719,-1.93173 3.18578,-2.0874 6.15489,-2.40355 23.36388,-2.48777 19.32195,-0.0945 19.71431,-0.0434 19.71428,2.57023 0,1.655 0.9926,2.92629 2.61637,3.3509 4.43131,1.15883 86.58124,0.75724 89.57112,-0.43786 1.54688,-0.6183 2.8125,-1.95286 2.8125,-2.9657 0,-3.26999 1.84202,-3.16802 13.14385,0.72755 13.69153,4.71928 32.07913,5.95555 42.97536,2.88941 z"
     style="fill:#000000"
     inkscape:connector-curvature="0" />
</svg>
