<?xml version="1.0" encoding="UTF-8" standalone="no"?>
<svg
   xmlns:dc="http://purl.org/dc/elements/1.1/"
   xmlns:cc="http://creativecommons.org/ns#"
   xmlns:rdf="http://www.w3.org/1999/02/22-rdf-syntax-ns#"
   xmlns:svg="http://www.w3.org/2000/svg"
   xmlns="http://www.w3.org/2000/svg"
   id="svg4941"
   version="1.1"
   width="316.09457"
   height="327.34988"
   viewBox="0 0 316.09457 327.34988">
  <metadata
     id="metadata4947">
    <rdf:RDF>
      <cc:Work
         rdf:about="">
        <dc:format>image/svg+xml</dc:format>
        <dc:type
           rdf:resource="http://purl.org/dc/dcmitype/StillImage" />
        <dc:title></dc:title>
      </cc:Work>
    </rdf:RDF>
  </metadata>
  <defs
     id="defs4945" />
  <path
     style="fill:#000000"
     d="m 245.23716,326.20223 7.5,-0.72736 -0.18741,-4.091 c -0.27537,-6.01111 -3.52173,-10.284 -7.81335,-10.284 -5.53207,0 -6.84031,-2.75805 -7.40221,-15.60537 -0.75316,-17.22044 1.35617,-30.12659 6.63791,-40.61473 2.43182,-4.82895 4.92168,-8.7799 5.53303,-8.7799 0.61134,0 6.6947,-5.30866 13.51857,-11.79704 23.60401,-22.44351 29.11559,-42.336 19.18027,-69.22574 -4.75929,-12.88091 -4.89413,-18.83693 -0.59263,-26.17688 2.85542,-4.87241 3.65071,-5.45305 6.5625,-4.79134 1.82232,0.41412 6.28501,1.11212 9.91707,1.55111 5.80111,0.70115 6.97857,0.44605 9.6875,-2.09886 1.69606,-1.59338 3.08375,-4.22502 3.08375,-5.84813 0,-1.62309 0.79049,-4.19691 1.75666,-5.7196 0.96616,-1.52268 2.14346,-6.25887 2.61621,-10.52486 l 0.85956,-7.75635 -5.99614,-4.118655 c -8.83068,-6.065659 -11.35171,-9.179958 -13.00289,-16.062837 -1.96858,-8.205976 -6.40745,-11.289398 -21.13047,-14.678116 -6.17478,-1.421215 -7.16845,-3.726062 -5.36684,-12.448557 1.55301,-7.518952 2.00354,-15.304148 0.88565,-15.304148 -0.34554,0 -2.69779,2.290734 -5.22723,5.090521 -2.52944,2.799787 -6.6061,6.123272 -9.05924,7.385522 -6.13568,3.157067 -10.73961,8.353433 -13.31112,15.023957 -1.19265,3.09375 -4.16858,8.116226 -6.61318,11.161057 -6.31855,7.869972 -17.96585,30.377976 -16.26406,31.429746 2.14984,1.32867 -0.70365,5.51534 -7.07462,10.37994 -3.52334,2.69027 -5.0362,4.55047 -4.03995,4.96749 1.11921,0.46848 0.84948,1.1198 -0.90734,2.19096 -3.04357,1.8557 -11.5797,10.48659 -15,15.16651 l -2.5,3.42069 -9.73823,-4.35819 c -9.5865,-4.2903 -14.21038,-5.45211 -12.83373,-3.22465 0.38562,0.62396 -1.15664,0.56356 -3.43063,-0.13434 -3.23876,-0.99401 -7.49209,-0.58885 -19.6893,1.87556 -19.60063,3.96025 -32.23922,4.98351 -41.80811,3.38488 -16.372253,-2.73523 -27.613553,-2.9647 -34.523013,-0.70472 -6.55174,2.14296 -6.56799,2.14161 -8.73116,-0.72618 -2.80482,-3.71843 -3.62083,-8.05848 -3.62083,-19.25777 0,-10.47673 -0.82334,-13.73119 -3.01387,-11.9132 -1.10795,0.91951 -1.38505,-0.69539 -1.12059,-6.5306 1.24656,-27.504569 1.33585,-25.983747 -1.38764,-23.63478 -2.33916,2.017483 -2.33009,1.896443 0.16803,-2.242403 6.436,-10.663042 20.27761,-15.255742 32.22587,-10.692661 10.09346,3.85473 13.7913,11.08167 10.50046,20.521774 -1.7702,5.077995 -0.65345,8.625322 2.01753,6.408611 1.54317,-1.280717 1.86021,-1.11085 1.86021,0.996677 0,1.510781 2.638093,4.813362 6.508563,8.147972 l 6.50855,5.60746 2.13259,-4.76328 c 1.33285,-2.97702 5.21703,-7.187254 10.35765,-11.227114 13.75828,-10.812204 17.09996,-18.426259 12.20623,-27.811939 -2.65012,-5.082644 -2.30368,-5.835244 1.21871,-2.647529 2.11041,1.909891 2.33587,1.824995 3.53592,-1.331375 3.04993,-8.021894 0.5575,-16.548182 -8.79012,-30.069999 C 121.86541,18.270037 108.57057,7.4761912 100.49486,7.3773192 c -1.422243,-0.01741 -2.107963,-0.813701 -1.875003,-2.177308 0.49358,-2.888971 -8.84134,-5.081278 -22.1327,-5.197877 -32.13546,-0.281909 -62.41836,27.4002018 -67.5722705,61.7689778 -0.61683,4.113297 -1.25012,5.381369 -2.20875,4.422733 -2.29095,-2.290958 -2.90055,-1.55835 -4.34224,5.218522 -3.26443995,15.344924 -3.19737995,20.377833 0.51015,38.283103 0.45146,2.18029 0.15111,2.79255 -1.12896,2.30134 -1.39021995,-0.53347 -1.64199995,0.63913 -1.24102995,5.7794 0.82818995,10.61687 2.86118995,17.83909 6.74587995,23.96458 2.02155,3.18767 3.0385305,5.40207 2.25997,4.92088 -0.9882,-0.61074 -1.13834,0.0215 -0.4973,2.09416 2.8125405,9.09358 6.1458105,16.55142 8.8159005,19.72465 2.94954,3.50532 2.9731,3.70758 0.9809,8.418 -4.08149,9.65039 -3.4493,51.2043 0.73961,48.61542 0.54197,-0.33497 2.60601,1.96557 4.58676,5.11228 2.02493,3.21688 9.791,10.914 17.74144,17.5839 7.77703,6.52444 14.7524,13.20654 15.50082,14.84913 1.18263,2.59561 0.75811,3.76002 -3.24339,8.89612 -2.53228,3.25029 -4.92638,7.19353 -5.32023,8.76275 -0.74905,2.98444 -0.35641,3.77417 10.44431,21.00679 3.44718,5.5 7.80308,12.723 9.67979,16.05113 4.38107,7.76929 8.60441,9.57387 22.40625,9.57387 11.998023,0 14.517393,-0.63144 14.517393,-3.63853 0,-2.86123 -7.641663,-10.10675 -10.684513,-10.13061 -3.3986,-0.0266 -4.89913,-1.23605 -7.26608,-5.85629 -2.85282,-5.56868 -2.62453,-15.59683 0.49425,-21.71015 1.39902,-2.74228 5.91895,-8.27851 10.04433,-12.3027 l 7.500663,-7.31672 8.39318,0.65577 c 4.61625,0.36069 8.57788,1.1297 8.80365,1.70894 0.22576,0.57924 1.91326,0.2844 3.75,-0.6552 4.6157,-2.36119 27.71452,-3.32444 27.71452,-1.15572 0,1.18955 0.80655,1.28269 3.20638,0.37027 1.7635,-0.67048 5.94563,-1.21906 9.29362,-1.21906 3.34799,0 7.53013,-0.54858 9.29363,-1.21906 2.51592,-0.95655 3.20637,-0.8339 3.20637,0.56955 0,1.54057 0.67786,1.54945 4.88801,0.064 2.68842,-0.94853 6.65811,-1.90795 8.82155,-2.13205 l 3.93353,-0.40744 10.50466,29.375 c 12.08306,33.78883 12.98811,35.12957 23.48445,34.78986 3.57104,-0.11557 9.8678,-0.53745 13.9928,-0.9375 z"
     id="path4951" />
</svg>
