<?xml version="1.0" encoding="UTF-8" standalone="no"?>
<svg
   xmlns:dc="http://purl.org/dc/elements/1.1/"
   xmlns:cc="http://creativecommons.org/ns#"
   xmlns:rdf="http://www.w3.org/1999/02/22-rdf-syntax-ns#"
   xmlns:svg="http://www.w3.org/2000/svg"
   xmlns="http://www.w3.org/2000/svg"
   viewBox="0 0 500.51447 226.9024"
   height="226.9024"
   width="500.51447"
   version="1.1"
   id="svg5152">
  <metadata
     id="metadata5158">
    <rdf:RDF>
      <cc:Work
         rdf:about="">
        <dc:format>image/svg+xml</dc:format>
        <dc:type
           rdf:resource="http://purl.org/dc/dcmitype/StillImage" />
        <dc:title></dc:title>
      </cc:Work>
    </rdf:RDF>
  </metadata>
  <defs
     id="defs5156" />
  <path
     id="path5162"
     d="m 133.19054,225.0741 c -2.98363,-3.59506 -2.81666,-15.92017 0.52465,-38.72896 4.38511,-29.93408 6.70351,-34.94099 17.39526,-37.56774 6.82891,-1.67773 10.79134,-7.47435 10.79134,-15.78665 0,-5.0816 -2.40193,-23.33955 -3.23726,-24.60769 -0.59939,-0.90994 -15.4648,7.42491 -22.53389,12.63445 -4.20539,3.09914 -12.36163,10.0509 -18.125,15.44835 -27.934298,26.16076 -40.871138,34.03846 -60.346808,36.74728 -9.45587,1.31518 -23.43788,0.0642 -30.29582,-2.71054 l -3.58622,-1.45101 3.125,-0.85624 c 2.72501,-0.74664 2.188,-1.13359 -4.19565,-3.02321 C 7.4981222,160.67041 -2.5359578,144.97184 0.56191219,130.52695 1.3069722,127.05286 2.5422522,122.988 3.3069722,121.49392 c 2.05228,-4.00967 9.9643398,-12.03229 13.9073198,-14.10165 l 3.4375,-1.80407 0.005,5.9696 c 0.009,11.94325 8.30582,18.82811 20.90418,17.34742 14.48837,-1.70282 23.56984,-8.14972 39.48932,-28.03327 13.49856,-16.859801 18.874987,-21.918643 27.581818,-25.952579 4.42388,-2.049611 5.68356,-3.128631 4.28085,-3.6669 -1.34871,-0.51755 1.725,-2.710655 9.56279,-6.82308 13.07277,-6.859177 26.12138,-11.276989 33.30811,-11.276989 3.05812,0 4.75213,-0.543025 4.55583,-1.460393 -0.62686,-2.92947 9.15958,-4.011252 21.92277,-2.423322 l 12.23527,1.522249 15.88973,-6.801514 c 34.01417,-14.559582 53.67473,-19.815796 74.01473,-19.787693 15.11277,0.02087 24.29565,1.778296 51.09091,9.777754 17.05765,5.092393 20.08543,5.647637 26.95755,4.943568 4.2579,-0.436235 10.79824,-0.197816 14.53409,0.52982 11.9828,2.333907 20.91975,1.71027 37.42689,-2.611719 l 15.61556,-4.088553 8.125,-8.513503 c 9.10655,-9.541988 19.82429,-15.8807843 32.1949,-19.0410442 4.30094,-1.0987413 9.22281,-2.9169404 10.9375,-4.0404429 4.33491,-2.840343 4.02199,-0.65361308 -1.2574,8.7868125 -2.40625,4.3027766 -4.375,8.6256346 -4.375,9.6063506 0,0.980716 2.00574,2.863284 4.45721,4.183484 2.45146,1.320201 6.10771,4.280188 8.125,6.577751 3.21598,3.662806 3.66779,5.134881 3.66779,11.950387 0,6.877995 0.50375,8.481537 4.375,13.926533 4.77643,6.718146 5.37409,9.578192 2.5,11.963475 -1.03125,0.855861 -1.875,2.122186 -1.875,2.814055 0,0.691869 -1.99699,3.576119 -4.43774,6.409444 -2.44076,2.833326 -4.99418,5.854626 -5.67428,6.714001 -1.87439,2.368485 -5.9849,1.883514 -11.65315,-1.374877 -9.8341,-5.653122 -17.62787,-0.07724 -17.33568,12.402426 0.12853,5.489529 -0.17561,6.504469 -1.7662,5.894099 -1.49636,-0.57421 -1.73262,-0.14241 -1.06796,1.95176 1.15443,3.63733 -1.4922,3.51966 -7.14691,-0.31773 l -4.43081,-3.006819 -1.43418,5.695639 c -2.11823,8.41225 -5.03203,13.61664 -6.40355,11.43753 -0.82929,-1.31758 -1.4796,-0.74419 -2.65724,2.34293 -0.85758,2.2481 -2.20441,3.83988 -2.99295,3.53729 -0.78854,-0.30259 -2.14305,0.77525 -3.01003,2.3952 -1.98297,3.70521 -0.21576,11.49776 5.17168,22.80461 2.79955,5.87553 5.37606,9.06869 10.34362,12.81924 3.63847,2.74708 8.97639,7.79466 11.86204,11.21688 3.2903,3.9021 6.74031,6.6089 9.25249,7.25927 5.20487,1.34749 7.08951,5.26639 7.11242,14.7895 0.0284,11.81125 -3.09611,12.89685 -15.18038,5.27436 -3.2031,-2.02043 -8.69999,-4.12818 -12.21532,-4.68388 -5.72361,-0.90478 -7.11106,-1.8055 -13.2776,-8.61974 -8.63938,-9.54684 -15.20275,-12.80136 -36.81295,-18.25416 -9.27867,-2.34125 -19.96407,-5.44593 -23.74532,-6.89929 l -6.875,-2.64246 -2.80788,3.45786 c -4.8299,5.94797 -7.20623,14.90947 -7.04905,26.58286 0.0787,5.84375 0.76392,12.1614 1.52272,14.03921 1.18522,2.9331 1.89923,3.31029 5.0671,2.67672 3.1484,-0.62969 3.95637,-0.21512 5.52688,2.83578 2.59249,5.03623 4.47494,12.41558 3.53437,13.85495 -0.43678,0.6684 -7.42535,1.58532 -15.53018,2.03759 -14.2797,0.79685 -14.82577,0.73258 -17.63382,-2.07547 -3.98625,-3.98625 -6.39464,-12.05864 -10.13068,-33.95585 -3.13595,-18.38005 -6.28172,-27.80865 -11.91991,-35.72675 -2.71796,-3.81704 -4.52965,-4.01182 -15.89205,-1.70864 -1.91608,0.38839 -2.8125,-0.0251 -2.8125,-1.29748 0,-1.36048 -0.93334,-1.6923 -3.4375,-1.22209 -18.64553,3.50118 -22.8125,3.90388 -22.8125,2.20464 0,-1.4156 -0.6871,-1.3715 -3.81248,0.24469 -2.09686,1.08434 -4.81587,1.65304 -6.04226,1.2638 -4.04007,-1.28226 -25.59742,23.77721 -27.15537,31.56694 -0.95059,4.75293 3.09091,12.25192 10.43363,19.35957 3.95839,3.83168 5.66799,4.65704 9.06202,4.375 3.63482,-0.30203 4.64193,0.30787 7.68231,4.65239 3.72094,5.317 4.54494,10.41221 2.08215,12.875 -0.94689,0.94689 -5.69439,1.5 -12.87474,1.5 l -11.37474,0 -16.18776,-18.31171 c -24.95582,-28.2302 -24.95282,-28.22378 -17.43776,-37.39492 2.40625,-2.93651 4.375,-5.88631 4.375,-6.5551 0,-0.66878 -4.87112,0.41025 -10.82471,2.39788 -5.9536,1.98761 -11.43798,3.6143 -12.1875,3.61484 -0.74954,5.3e-4 -4.75037,1.6036 -8.89074,3.56235 -10.47391,4.95505 -18.4306,14.0388 -21.99738,25.11327 -3.06446,9.51485 -2.61107,12.57339 1.86382,12.57339 3.75102,0 6.20197,5.88926 5.03647,12.1019 l -0.77819,4.1481 -12.20783,0 c -9.18788,0 -12.58319,-0.45227 -13.72519,-1.8283 z"
     style="fill:#000000" />
</svg>
