<?xml version="1.0" encoding="UTF-8" standalone="no"?>
<svg
   xmlns:dc="http://purl.org/dc/elements/1.1/"
   xmlns:cc="http://creativecommons.org/ns#"
   xmlns:rdf="http://www.w3.org/1999/02/22-rdf-syntax-ns#"
   xmlns:svg="http://www.w3.org/2000/svg"
   xmlns="http://www.w3.org/2000/svg"
   viewBox="0 0 519.09661 492.45923"
   height="492.45923"
   width="519.09662"
   version="1.1"
   id="svg4776">
  <metadata
     id="metadata4782">
    <rdf:RDF>
      <cc:Work
         rdf:about="">
        <dc:format>image/svg+xml</dc:format>
        <dc:type
           rdf:resource="http://purl.org/dc/dcmitype/StillImage" />
        <dc:title></dc:title>
      </cc:Work>
    </rdf:RDF>
  </metadata>
  <defs
     id="defs4780" />
  <path
     id="path4786"
     d="m 158.49585,487.21018 c 7.96332,-8.63919 11.8331,-18.01934 11.85683,-28.74036 0.0173,-7.81884 -0.57945,-10.05662 -5.31209,-19.9197 -9.22754,-19.2307 -22.87209,-35.1135 -40.37783,-47.00143 -6.90929,-4.69201 -23.91564,-12.98877 -46.096137,-22.4886 -20.60845,-8.82652 -40.78736,-20.60404 -57.03434,-33.28835 l -11.40934,-8.90749 2.42429,8.33197 c 1.33336,4.58257 5.72891,15.08196 9.76788,23.33196 12.79767,26.14057 27.11368,39.48856 70.32717,65.5718 29.980557,18.09598 49.713547,31.58508 55.689727,38.06846 6.13354,6.6541 7.45744,12.19646 5.35027,22.39837 -0.83502,4.04276 -1.28489,7.58381 -0.99971,7.869 0.28519,0.28517 2.90116,-2.06635 5.81327,-5.22563 z m 29.72793,-39.6195 c 10.0345,-14.89741 15.29064,-30.78609 15.32437,-46.32377 0.0116,-5.35161 0.48251,-8.22448 1.26847,-7.73873 0.6875,0.4249 1.26789,4.53622 1.28976,9.13627 0.037,7.77763 0.17434,8.18854 1.96029,5.86373 3.87856,-5.04879 12.79215,-25.24788 14.89342,-33.75 1.27751,-5.16903 2.12658,-13.22621 2.07467,-19.6875 -0.0483,-6.01563 0.34727,-10.9375 0.8791,-10.9375 1.65957,0 5.87766,5.38252 8.81623,11.25 l 2.81713,5.625 -0.7069,-7.67635 c -0.88151,-9.57239 -4.71247,-20.00569 -9.64779,-26.27491 -2.07773,-2.6393 -10.07554,-11.26749 -17.7729,-19.17374 -15.56145,-15.98375 -19.81902,-22.98359 -20.61631,-33.89501 -0.55374,-7.5784 2.3488,-16.10499 5.48232,-16.10499 0.92629,0 6.56951,1.13911 12.54048,2.53136 14.64016,3.41364 23.68628,3.43989 30.25691,0.0878 6.32901,-3.22881 8.98359,-8.0191 8.98359,-16.21117 0,-4.8724 0.70334,-7.05205 3.25358,-10.08284 3.74898,-4.4554 6.74642,-13.39326 6.74642,-20.11665 0,-2.5543 0.80289,-6.9198 1.78419,-9.70111 3.39164,-9.61294 0.0517,-14.79055 -15.38683,-23.85249 -17.35607,-10.18751 -21.08753,-15.17356 -26.55539,-35.48383 -3.16315,-11.74945 -5.63405,-14.72508 -17.82067,-21.46087 -8.17363,-4.51773 -26.36265,-10.70451 -39.31766,-13.37344 -11.18867,-2.30504 -11.74239,-3.63667 -12.6666,-30.461763 -0.78736,-22.853249 -1.82993,-26.991698 -9.27209,-36.80535 -1.79572,-2.367941 -3.26495,-5.279719 -3.26495,-6.470616 0,-1.190896 -1.16026,-7.972239 -2.57837,-15.06965 -1.4181,-7.097411 -2.29722,-14.7325093 -1.95359,-16.9668843 0.34363,-2.234375 0.35302,-4.06249999 0.0209,-4.06249999 -1.18327,0 -6.71637,13.18024429 -6.82179,16.25000029 -0.0969,2.821873 -0.25401,2.719786 -1.61971,-1.052424 l -1.5124,-4.177423 -3.08,6.576546 c -2.40013,5.124848 -3.03739,8.392312 -2.88697,14.802423 0.13216,5.631889 -0.37642,8.865703 -1.61277,10.254848 -0.99318,1.115934 -2.25038,4.841409 -2.79376,8.278832 -1.29559,8.195787 -5.39836,14.886674 -17.057207,27.817198 -5.26903,5.84375 -11.23445,13.514332 -13.25649,17.045739 -2.90134,5.067074 -5.42766,7.438884 -11.98289,11.250004 -10.80573,6.28232 -27.11461,21.75587 -35.0269,33.23287 -20.9254,30.35289 -33.1475503,76.75848 -31.20261032,118.47139 1.34559002,28.85839 9.11019002,49.19381 24.97229032,65.40216 13.98244,14.28767 26.13487,20.44279 72.14231,36.5396 9.281247,3.24726 23.054627,9.03608 30.607497,12.86401 11.9702,6.06672 15.26894,8.49082 25.70508,18.88955 10.25207,10.21532 12.80978,13.63618 17.79831,23.80468 5.8483,11.92106 9.26408,23.54471 9.82608,33.4375 0.16599,2.92187 0.61817,5.3125 1.00485,5.3125 0.38667,0 3.07107,-3.51563 5.96534,-7.8125 z"
     style="fill:#000000" />
  <path
     id="path4786-2"
     d="m 360.60077,486.807 c -7.96332,-8.63919 -11.8331,-18.01934 -11.85683,-28.74036 -0.0173,-7.81884 0.57945,-10.05662 5.31209,-19.9197 9.22754,-19.2307 22.87209,-35.1135 40.37783,-47.00143 6.90929,-4.69201 23.91564,-12.98877 46.09613,-22.4886 20.60845,-8.82652 40.78737,-20.60404 57.03435,-33.28835 l 11.40934,-8.90749 -2.42429,8.33197 c -1.33336,4.58257 -5.72891,15.08196 -9.76788,23.33196 -12.79767,26.14057 -27.11369,39.48856 -70.32718,65.5718 -29.98055,18.09598 -49.71354,31.58508 -55.68972,38.06846 -6.13354,6.6541 -7.45744,12.19646 -5.35027,22.39837 0.83502,4.04276 1.28489,7.58381 0.99971,7.869 -0.28519,0.28517 -2.90116,-2.06635 -5.81327,-5.22563 z m -29.72793,-39.6195 c -10.0345,-14.89741 -15.29064,-30.78609 -15.32437,-46.32377 -0.0116,-5.35161 -0.48251,-8.22448 -1.26847,-7.73873 -0.6875,0.4249 -1.26789,4.53622 -1.28976,9.13627 -0.037,7.77763 -0.17434,8.18854 -1.96029,5.86373 -3.87856,-5.04879 -12.79215,-25.24788 -14.89342,-33.75 -1.27751,-5.16903 -2.12658,-13.22621 -2.07467,-19.6875 0.0483,-6.01563 -0.34727,-10.9375 -0.8791,-10.9375 -1.65957,0 -5.87766,5.38252 -8.81623,11.25 l -2.81713,5.625 0.7069,-7.67635 c 0.88151,-9.57239 4.71247,-20.00569 9.64779,-26.27491 2.07773,-2.6393 10.07554,-11.26749 17.7729,-19.17374 15.56145,-15.98375 19.81902,-22.98359 20.61631,-33.89501 0.55374,-7.5784 -2.3488,-16.10499 -5.48232,-16.10499 -0.92629,0 -6.56951,1.13911 -12.54048,2.53136 -14.64016,3.41364 -23.68628,3.43989 -30.25691,0.0878 -6.32901,-3.22881 -8.98359,-8.0191 -8.98359,-16.21117 0,-4.8724 -0.70334,-7.05205 -3.25358,-10.08284 -3.74898,-4.4554 -6.74642,-13.39326 -6.74642,-20.11665 0,-2.5543 -0.80289,-6.9198 -1.78419,-9.70111 -3.39164,-9.61294 -0.0517,-14.79055 15.38683,-23.85249 17.35607,-10.18751 21.08753,-15.17356 26.55539,-35.48383 3.16315,-11.74945 5.63405,-14.72508 17.82067,-21.46087 8.17363,-4.51773 26.36265,-10.70451 39.31766,-13.37344 11.18867,-2.30504 11.74239,-3.63667 12.6666,-30.46176 0.78736,-22.853249 1.82993,-26.991698 9.27209,-36.80535 1.79572,-2.367941 3.26495,-5.279719 3.26495,-6.470616 0,-1.190896 1.16026,-7.972239 2.57837,-15.06965 1.4181,-7.097411 2.29722,-14.732509 1.95359,-16.966884 C 389.71833,1.828125 389.70894,0 390.04106,0 c 1.18327,0 6.71637,13.180244 6.82179,16.25 0.0969,2.821873 0.25401,2.719786 1.61971,-1.052424 l 1.5124,-4.177423 3.08,6.576546 c 2.40013,5.124848 3.03739,8.392312 2.88697,14.802423 -0.13216,5.631889 0.37642,8.865703 1.61277,10.254848 0.99318,1.115934 2.25038,4.841409 2.79376,8.278832 1.29559,8.195787 5.39836,14.886674 17.0572,27.817198 5.26903,5.84375 11.23445,13.514332 13.25649,17.045739 2.90134,5.067071 5.42766,7.438881 11.98289,11.250001 10.80573,6.28232 27.11461,21.75587 35.02691,33.23287 20.9254,30.35289 33.14755,76.75848 31.20261,118.47139 -1.34559,28.85839 -9.11019,49.19381 -24.97229,65.40216 -13.98245,14.28767 -26.13488,20.44279 -72.14232,36.5396 -9.28124,3.24726 -23.05462,9.03608 -30.60749,12.86401 -11.9702,6.06672 -15.26894,8.49082 -25.70508,18.88955 -10.25207,10.21532 -12.80978,13.63618 -17.79831,23.80468 -5.8483,11.92106 -9.26408,23.54471 -9.82608,33.4375 -0.16599,2.92187 -0.61817,5.3125 -1.00485,5.3125 -0.38667,0 -3.07107,-3.51563 -5.96534,-7.8125 z"
     style="fill:#000000" />
</svg>
