<?xml version="1.0" encoding="UTF-8" standalone="no"?>
<svg
   xmlns:dc="http://purl.org/dc/elements/1.1/"
   xmlns:cc="http://creativecommons.org/ns#"
   xmlns:rdf="http://www.w3.org/1999/02/22-rdf-syntax-ns#"
   xmlns:svg="http://www.w3.org/2000/svg"
   xmlns="http://www.w3.org/2000/svg"
   version="1.1"
   id="svg4581"
   viewBox="0 0 369.70589 706.92674"
   height="199.51044mm"
   width="104.33922mm">
  <defs
     id="defs4583" />
  <metadata
     id="metadata4586">
    <rdf:RDF>
      <cc:Work
         rdf:about="">
        <dc:format>image/svg+xml</dc:format>
        <dc:type
           rdf:resource="http://purl.org/dc/dcmitype/StillImage" />
        <dc:title></dc:title>
      </cc:Work>
    </rdf:RDF>
  </metadata>
  <g
     transform="translate(-58.004188,-13.470227)"
     id="layer1">
    <path
       id="path3520-5"
       d="m 317.56098,665.7455 -1.07143,-21.7857 -4.64285,-16.7857 -6.42858,-14.6429 c -3.06774,-5.32613 -6.28368,-10.5669 -9.64285,-15.7142 -2.76136,-4.23128 -5.6195,-8.3994 -8.57143,-12.5 -4.66674,-4.00784 -9.19418,-8.17786 -13.57143,-12.5 -3.17559,-3.13561 -6.27214,-6.35127 -9.28571,-9.6429 -4.30132,-2.35273 -8.58716,-4.73376 -12.85715,-7.1429 -6.22455,-3.5119 -12.4154,-7.08352 -18.57143,-10.7142 l -25.35714,-11.0715 c -7.40972,-2.16657 -14.79149,-4.42872 -22.14286,-6.7857 -8.85506,-2.83909 -17.666,-5.81577 -26.42857,-8.9286 -7.59171,-3.12167 -15.09566,-6.45676 -22.5,-10 -4.56253,-2.18333 -9.08724,-4.44568 -13.57143,-6.7857 l -12.13832,-7.1647 -9.34391,-7.3236 -12.879436,-12.1219 -12.37437,-17.1726 -10.10153,-22.9809 -4.79822,-19.1929 -2.52538,-21.4657 -0.25254,-43.1841 c 0.8127,-5.22374 1.654511,-10.44295 2.52538,-15.6573 1.662054,-9.9516 3.429954,-19.88552 5.3033,-29.79951 l 7.57615,-30.30458 12.87944,-30.55711 12.87945,-23.73859 15.657356,-20.20305 c 2.88662,-3.00514 5.83369,-5.95221 8.83883,-8.83883 3.78194,-3.63279 7.65585,-7.16984 11.61676,-10.60661 l 14.89975,-10.85914 11.61675,-6.31345 3.283,-3.03046 4.54569,-9.34391 6.06091,-8.08122 c 3.42915,-4.21441 6.96623,-8.341 10.6066,-12.37437 4.15082,-4.59893 8.43493,-9.07561 12.62691,-13.63706 1.61312,-1.7553 3.21259,-3.52314 4.79822,-5.30331 2.03083,-3.56798 3.96785,-7.18937 5.80838,-10.85914 1.13095,-2.254966 2.22547,-4.528201 3.283,-6.81852 l 0.25253,-9.34392 4.29315,-8.58629 1.76777,-2.27285 0.75761,-10.35406 -2.0203,-1.26269 0.50508,-7.82868 2.77792,-10.35407 7.57614,-13.13198 3.78807,11.86929 1.26269,-12.12183 4.54569,-11.11167 4.29315,-4.54569 -0.50508,17.17259 c 1.3089,5.46086 2.57165,10.93278 3.78807,16.41498 1.04434,4.706635 2.05452,9.420847 3.03046,14.14214 l 0.25254,6.31345 c 1.54182,2.561242 3.14178,5.087489 4.79822,7.57614 2.40784,3.617559 4.93506,7.155661 7.57615,10.60661 l 5.05076,13.88959 0.50508,50.50764 3.28299,13.8896 6.06092,5.55584 21.46574,4.29314 21.46574,6.566 18.43528,7.3236 15.65737,9.84899 5.80838,4.29315 c 1.78554,3.65641 3.46999,7.36218 5.05076,11.11167 1.0567,2.50643 2.06709,5.03239 3.03046,7.57615 l 2.0203,11.86929 3.53554,7.57615 1.01015,6.06091 3.53553,5.05076 c 2.24138,1.87542 4.43115,3.81252 6.56599,5.80838 2.60936,2.4395 5.13665,4.96678 7.57615,7.57614 3.44309,1.9508 6.89449,3.88695 10.35406,5.80838 3.3595,1.86585 6.72672,3.71782 10.10153,5.55584 l 7.57614,5.05076 4.79823,5.3033 2.27284,1.76777 0,10.6066 0,5.3033 -2.02031,4.04061 0,4.04061 -0.75761,3.283 -0.25254,14.14212 -4.54569,12.8795 -8.08122,8.8388 -1.76776,5.3033 0.25254,16.92 -4.54569,7.0711 -11.61676,8.0812 -12.37436,1.7678 -15.40483,0 c -5.75356,-1.58153 -11.47897,-3.26549 -17.17259,-5.0508 -2.61639,-0.8204 -5.22607,-1.66221 -7.82869,-2.5253 l -7.57614,0.2525 -4.29315,8.5863 -1.76777,5.3033 0.25254,15.9099 c 1.50405,3.49447 3.10427,6.94754 4.79823,10.354 1.82808,3.67616 3.76534,7.29802 5.80837,10.8592 3.23436,3.58028 6.51777,7.11626 9.84899,10.6066 9.00308,9.43313 18.35553,18.5328 28.03173,27.2741 l 3.53554,6.566 7.57614,6.3134 5.05077,11.8693 4.04061,12.1218 1.26269,14.6473 0,5.8083 -2.52538,-0.505 -4.04062,-11.3643 -4.29314,-7.5761 -6.06092,-4.0406 -1.01015,0 1.01015,15.9099 -0.50507,18.1827 -2.77792,11.6168 -3.03046,9.849 c -3.24763,7.04364 -6.61546,14.03187 -10.10153,20.9606 -2.38603,4.74236 -4.82746,9.45686 -7.3236,14.1422 l -4.29315,4.0406 -0.25254,-22.981 -3.78807,-3.7881 1.01015,28.5369 c -0.96819,2.84821 -1.8943,5.71073 -2.77792,8.5863 -0.97821,3.18337 -1.90434,6.38274 -2.77792,9.5964 l -7.3236,19.4454 c -3.20845,4.84867 -6.49198,9.64767 -9.84899,14.3947 -2.15843,3.05215 -4.34724,6.08282 -6.56599,9.0914 l -2.82548,1.1964 z"
       style="fill:#000000;fill-rule:evenodd;stroke:#000000;stroke-width:1px;stroke-linecap:butt;stroke-linejoin:miter;stroke-opacity:1" />
    <path
       id="path3528-6"
       d="m 278.79352,719.6994 0.75762,-7.3236 3.28299,-8.3338 -0.50507,-13.6371 -5.3033,-7.5761 -13.8896,-15.1523 c -8.16478,-5.47259 -16.33018,-10.94425 -24.4962,-16.415 -6.76999,-4.5355 -13.54185,-9.07129 -20.45559,-13.3845 -10.27736,-6.41163 -20.85607,-12.32388 -31.31473,-18.4353 -9.78544,-5.71803 -19.46815,-11.61186 -29.04188,-17.6777 l -23.23351,-18.1827 -4.79823,-3.0305 -10.10152,-9.5964 c -3.36414,-4.71623 -6.73132,-9.4303 -10.10153,-14.1422 -4.03626,-5.64311 -8.07687,-11.28311 -12.121826,-16.92 l -11.86929,-23.2335 c -1.362681,-3.75375 -2.625961,-7.54359 -3.78807,-11.3642 -1.30226,-4.28138 -2.477302,-8.60072 -3.78808,-12.8795 -1.013733,-3.30914 -2.108501,-6.59345 -3.28299,-9.849 l 7.57614,7.3236 c 3.951244,2.48972 7.825937,5.10093 11.61676,7.8287 2.63757,1.89792 5.234196,3.85199 7.828676,5.8084 3.45473,2.6051 6.90609,5.21467 10.35406,7.8287 l 20.96067,13.132 c 6.48173,3.448 13.05051,6.73236 19.69797,9.8489 5.52578,2.59066 11.10517,5.06502 16.66752,7.5762 5.73374,2.58855 11.44966,5.21634 17.17259,7.8287 5.79275,2.64423 11.59289,5.27275 17.42513,7.8287 5.52774,2.42251 11.0841,4.77973 16.66752,7.071 l 16.92006,9.5965 13.13198,9.5964 c 4.39474,4.02169 8.77212,8.06234 13.13198,12.1218 4.14064,3.85534 8.26547,7.72765 12.37437,11.6168 3.41368,4.9642 6.69815,10.01725 9.84899,15.1523 4.10173,6.68476 7.97694,13.50851 11.61675,20.4556 l 6.31346,16.9201 1.01015,18.6878 -4.16688,14.1421 -5.05076,10.7329 -4.29315,5.5558 c -2.89802,2.7406 -5.76044,5.51885 -8.5863,8.3338 -0.42171,0.42008 -0.84261,0.84098 -1.26269,1.2627 l -2.90419,0.8839 z"
       style="display:inline;fill:#000000;fill-rule:evenodd;stroke:#000000;stroke-width:1px;stroke-linecap:butt;stroke-linejoin:miter;stroke-opacity:1" />
  </g>
</svg>
